<svg width="512" height="512" viewBox="0 0 512 512" fill="none" xmlns="http://www.w3.org/2000/svg">
<rect x="40" y="65" width="422" height="393" fill="white"/>
<path fill-rule="evenodd" clip-rule="evenodd" d="M382.644 388.977C373.904 388.977 366.808 396.073 366.808 404.837C366.808 413.6 373.904 420.697 382.644 420.697C391.407 420.697 398.504 413.6 398.504 404.837C398.504 396.073 391.407 388.977 382.644 388.977Z" fill="black"/>
<path fill-rule="evenodd" clip-rule="evenodd" d="M127.308 387C118.568 387 111.472 394.097 111.472 402.86C111.472 411.624 118.568 418.72 127.308 418.72C136.071 418.72 143.168 411.624 143.168 402.86C143.168 394.097 136.071 387 127.308 387Z" fill="black"/>
<path fill-rule="evenodd" clip-rule="evenodd" d="M395.597 0H116.403C52.1287 0 0 52.1287 0 116.426V395.597C0 459.895 52.1287 512 116.403 512H395.597C459.895 512 512 459.895 512 395.597V116.403C512 52.1287 459.871 0 395.597 0ZM320.131 137.764C332.895 137.764 343.231 148.099 343.231 160.863C343.231 173.628 332.895 183.963 320.131 183.963C307.367 183.963 297.031 173.628 297.031 160.863C297.031 148.099 307.367 137.764 320.131 137.764ZM320.131 203.014C332.895 203.014 343.231 213.349 343.231 226.113C343.231 238.878 332.895 249.213 320.131 249.213C307.367 249.213 297.031 238.878 297.031 226.113C297.031 213.349 307.367 203.014 320.131 203.014ZM255.024 137.764C267.788 137.764 278.123 148.099 278.123 160.863C278.123 173.628 267.788 183.963 255.024 183.963C242.259 183.963 231.924 173.628 231.924 160.863C231.924 148.099 242.259 137.764 255.024 137.764ZM255.024 203.014C267.788 203.014 278.123 213.349 278.123 226.113C278.123 238.878 267.788 249.213 255.024 249.213C242.259 249.213 231.924 238.878 231.924 226.113C231.924 213.349 242.259 203.014 255.024 203.014ZM189.916 137.764C202.681 137.764 213.016 148.099 213.016 160.863C213.016 173.628 202.681 183.963 189.916 183.963C177.152 183.963 166.817 173.628 166.817 160.863C166.817 148.099 177.152 137.764 189.916 137.764ZM189.916 203.014C202.681 203.014 213.016 213.349 213.016 226.113C213.016 238.878 202.681 249.213 189.916 249.213C177.152 249.213 166.817 238.878 166.817 226.113C166.817 213.349 177.152 203.014 189.916 203.014ZM127.309 447.036C102.924 447.036 83.1345 427.246 83.1345 402.861C83.1345 378.451 102.924 358.662 127.309 358.662C151.719 358.662 171.508 378.451 171.508 402.861C171.532 427.246 151.719 447.036 127.309 447.036ZM382.643 449.012C358.257 449.012 338.468 429.223 338.468 404.837C338.468 380.428 358.257 360.639 382.643 360.639C407.052 360.639 426.841 380.428 426.841 404.837C426.841 429.223 407.052 449.012 382.643 449.012ZM460.252 89.6833L414.577 259.81C402.384 305.223 363.901 333.729 316.868 333.729H286.744C276.79 333.729 262.382 328.347 256.405 322.727C255.405 321.798 253.833 321.798 252.833 322.727C246.855 328.347 232.448 333.729 222.494 333.729H189.392C143.86 333.729 109.354 307.772 95.5416 264.383L56.701 142.55C55.939 140.121 56.3438 137.549 57.8679 135.478C59.3682 133.43 61.6781 132.239 64.2739 132.239L71.7038 132.263C89.6119 132.334 105.305 143.836 110.711 160.887L139.24 250.475C146.956 274.742 171.651 291.054 197.108 291.054L208.182 291.03C219.612 291.03 227.661 285.172 232.519 279.933C235.044 277.194 238.568 275.599 242.307 275.599L267.169 275.623C270.693 275.623 274.122 277.028 276.48 279.623C281.195 284.791 289.554 291.03 301.08 291.03L311.629 291.054C337.92 291.054 363.425 273.313 370.259 247.927L407.242 110.187C412.077 92.2553 428.389 79.7529 446.94 79.7529H453.465C454.084 79.7529 454.704 79.8482 455.275 80.0863C459.443 81.8486 461.276 85.9207 460.252 89.6833Z" fill="black"/>
</svg>
