<svg width="96" height="96" viewBox="0 0 96 96" fill="none" xmlns="http://www.w3.org/2000/svg">
<g clip-path="url(#clip0_1:22)">
<path d="M48 96C35.7747 95.9918 24.0131 91.3191 15.1153 82.9353C6.21747 74.5516 0.853909 63.0886 0.119029 50.8853C-0.61585 38.6821 3.33334 26.6583 11.1608 17.2674C18.9882 7.87639 30.104 1.82602 42.24 0.350771C49.6211 -0.563507 57.1138 0.264794 64.1169 2.76923C64.5739 2.93288 64.9942 3.18494 65.3538 3.51101C65.7134 3.83709 66.0052 4.2308 66.2127 4.66966C66.4201 5.10853 66.5391 5.58395 66.5628 6.06879C66.5865 6.55363 66.5144 7.03839 66.3508 7.49539C66.1871 7.95239 65.9351 8.37268 65.609 8.73227C65.2829 9.09185 64.8892 9.3837 64.4504 9.59113C64.0115 9.79856 63.5361 9.91752 63.0512 9.94122C62.5664 9.96491 62.0816 9.89288 61.6246 9.72923C52.5526 6.50139 42.6289 6.6017 33.624 10.0123C24.6191 13.4228 17.1189 19.9218 12.4614 28.3496C7.80394 36.7774 6.29225 46.5858 8.19604 56.0248C10.0998 65.4639 15.2953 73.9195 22.8554 79.8831C29.1824 84.844 36.8394 87.8156 44.8565 88.4213C52.8736 89.027 60.8902 87.2397 67.8907 83.2857C74.8913 79.3318 80.5608 73.389 84.1812 66.2103C87.8015 59.0315 89.2098 50.9398 88.2277 42.96C88.1695 42.4751 88.2074 41.9835 88.3392 41.5133C88.471 41.0431 88.6941 40.6034 88.9959 40.2194C89.2976 39.8354 89.672 39.5145 90.0977 39.2752C90.5234 39.0359 90.9921 38.8828 91.4769 38.8246C91.9618 38.7664 92.4534 38.8043 92.9237 38.9361C93.3939 39.0679 93.8336 39.291 94.2176 39.5928C94.6016 39.8945 94.9224 40.2689 95.1617 40.6946C95.401 41.1203 95.5541 41.589 95.6123 42.0738C96.4521 48.8238 95.8477 55.6752 93.8391 62.1739C91.8305 68.6727 88.4637 74.6703 83.9617 79.7692C79.4597 84.8682 73.9254 88.9522 67.7256 91.7504C61.5258 94.5486 54.802 95.9971 48 96V96Z" fill="black"/>
<path d="M48 80.9723C47.0207 80.9723 46.0816 80.5833 45.3891 79.8909C44.6967 79.1984 44.3077 78.2593 44.3077 77.28V41.8338C44.3077 40.8546 44.6967 39.9154 45.3891 39.223C46.0816 38.5306 47.0207 38.1415 48 38.1415C48.9793 38.1415 49.9184 38.5306 50.6109 39.223C51.3033 39.9154 51.6923 40.8546 51.6923 41.8338V77.28C51.6923 78.2593 51.3033 79.1984 50.6109 79.8909C49.9184 80.5833 48.9793 80.9723 48 80.9723Z" fill="black"/>
<path d="M48 33.7477C50.6204 33.7477 52.7446 31.6234 52.7446 29.0031C52.7446 26.3827 50.6204 24.2585 48 24.2585C45.3796 24.2585 43.2554 26.3827 43.2554 29.0031C43.2554 31.6234 45.3796 33.7477 48 33.7477Z" fill="black"/>
</g>
<defs>
<clipPath id="clip0_1:22">
<rect width="96" height="96" fill="white"/>
</clipPath>
</defs>
</svg>
