<svg width="160" height="47" viewBox="0 0 160 47" fill="none" xmlns="http://www.w3.org/2000/svg">
<path d="M2.8584 17.7881C2.8584 22.3291 4.03027 26.0319 6.37402 28.8965C8.73405 31.7448 11.7533 33.1689 15.4316 33.1689C18.1497 33.1689 20.2575 32.7865 21.7549 32.0215C23.2686 31.2402 24.3509 30.2637 25.002 29.0918L27.2236 30.3613C26.0192 31.7448 24.4811 32.8841 22.6094 33.7793C20.7376 34.6745 18.3451 35.1221 15.4316 35.1221C11.0046 35.1221 7.4401 33.5514 4.73828 30.4102C2.03646 27.2689 0.685547 23.0615 0.685547 17.7881C0.685547 12.5309 2.03646 8.33171 4.73828 5.19043C7.4401 2.04915 11.0046 0.478516 15.4316 0.478516C18.3451 0.478516 20.7376 0.926107 22.6094 1.82129C24.4811 2.71647 26.0192 3.85579 27.2236 5.23926L25.002 6.50879C24.3509 5.33691 23.2686 4.36849 21.7549 3.60352C20.2575 2.82227 18.1497 2.43164 15.4316 2.43164C11.7533 2.43164 8.73405 3.86393 6.37402 6.72852C4.03027 9.57682 2.8584 13.2633 2.8584 17.7881ZM31.7646 28.0176V17.7393C31.7646 12.0101 31.6426 6.25651 31.3984 0.478516H34.084C33.8398 6.25651 33.7178 12.0101 33.7178 17.7393C33.7178 21.5153 33.7503 24.6729 33.8154 27.2119C33.8968 29.7347 34.0921 31.2484 34.4014 31.7529C34.9548 32.4528 35.5895 32.8027 36.3057 32.8027C37.0055 32.8027 37.7298 32.6644 38.4785 32.3877L38.1367 34.9023C37.8275 35 37.4043 35.0488 36.8672 35.0488C36.5742 35.0488 36.2568 35.0326 35.915 35C34.9059 34.9186 34.0514 34.5768 33.3516 33.9746C32.2936 33.0957 31.7646 31.11 31.7646 28.0176ZM52.9561 11.3672C56.4066 11.3672 59.2467 12.4577 61.4766 14.6387C63.6901 16.8359 64.7969 19.7087 64.7969 23.2568C64.7969 26.7725 63.6901 29.6289 61.4766 31.8262C59.2467 34.0234 56.4066 35.1221 52.9561 35.1221C49.5381 35.1221 46.7142 34.0234 44.4844 31.8262C42.2383 29.6289 41.1152 26.7725 41.1152 23.2568C41.1152 19.7087 42.2383 16.8359 44.4844 14.6387C46.7142 12.4577 49.5381 11.3672 52.9561 11.3672ZM45.9248 16.0547C44.0856 17.8939 43.166 20.2946 43.166 23.2568C43.166 26.2191 44.0856 28.6117 45.9248 30.4346C47.7477 32.1761 50.0915 33.0469 52.9561 33.0469C55.8206 33.0469 58.1725 32.1761 60.0117 30.4346C61.8346 28.6117 62.7461 26.2191 62.7461 23.2568C62.7461 20.2946 61.8346 17.8939 60.0117 16.0547C58.1725 14.2969 55.8206 13.418 52.9561 13.418C50.0915 13.418 47.7477 14.2969 45.9248 16.0547ZM73.1221 14.1748C73.1058 15.363 73.0977 16.5511 73.0977 17.7393C73.0977 21.5153 73.1302 24.6729 73.1953 27.2119C73.2767 29.7347 73.472 31.2484 73.7812 31.7529C74.3346 32.4528 74.9694 32.8027 75.6855 32.8027C76.3854 32.8027 77.1097 32.6644 77.8584 32.3877L77.5166 34.9023C77.2074 35 76.7842 35.0488 76.2471 35.0488C75.9541 35.0488 75.6367 35.0326 75.2949 35C74.2858 34.9186 73.4313 34.5768 72.7314 33.9746C71.6735 33.0957 71.1445 31.11 71.1445 28.0176V17.7393C71.1445 16.5674 71.1364 15.3955 71.1201 14.2236C69.4111 14.2887 68.2555 14.362 67.6533 14.4434V12.0264C68.2555 12.1077 69.403 12.181 71.0957 12.2461C71.0469 8.33984 70.9411 4.41732 70.7783 0.478516H73.4639C73.3011 4.43359 73.1872 8.3724 73.1221 12.2949C73.2848 12.3112 73.4476 12.3193 73.6104 12.3193C76.5726 12.238 78.485 12.1403 79.3477 12.0264V14.4434C78.485 14.3294 76.5726 14.2318 73.6104 14.1504C73.4476 14.1504 73.2848 14.1585 73.1221 14.1748ZM84.1572 24.7705C84.2061 28.221 84.3037 31.6309 84.4502 35H81.7646C82.0088 29.222 82.1309 23.4684 82.1309 17.7393C82.1309 12.0101 82.0088 6.25651 81.7646 0.478516H84.4502C84.2061 6.25651 84.084 12.0101 84.084 17.7393V18.8867C84.6374 16.9987 85.3779 15.5339 86.3057 14.4922C88.1449 12.6042 90.4561 11.652 93.2393 11.6357C95.8434 11.652 97.9593 12.6367 99.5869 14.5898C101.231 16.5592 102.142 19.5866 102.321 23.6719C102.5 27.7409 102.647 31.5169 102.761 35H100.051C100.246 32.9818 100.344 30.8333 100.344 28.5547C100.344 27.1387 100.311 25.6331 100.246 24.0381C100.035 20.0993 99.2858 17.3649 98 15.835C96.7142 14.3376 94.9564 13.5807 92.7266 13.5645C90.0247 13.5807 87.9333 14.8584 86.4521 17.3975C85.1012 19.7087 84.3363 22.1663 84.1572 24.7705ZM107.375 23.0371C108.661 24.1439 110.516 24.6973 112.941 24.6973C113.169 24.6973 113.413 24.6891 113.674 24.6729C114.895 24.624 116.042 24.4613 117.116 24.1846C118.467 23.8428 119.688 23.3219 120.778 22.6221C122.683 21.3851 123.732 20.1074 123.928 18.7891C123.977 18.4961 124.001 18.2194 124.001 17.959C124.001 17.6335 123.96 17.3242 123.879 17.0312C123.7 16.3151 123.342 15.6722 122.805 15.1025C121.861 14.1097 120.103 13.6133 117.531 13.6133H117.067C116.335 13.6621 115.643 13.7679 114.992 13.9307C113.218 14.3864 111.639 15.3467 110.256 16.8115C108.384 18.7972 107.424 20.8724 107.375 23.0371ZM105.593 24.7949C105.544 24.2578 105.52 23.737 105.52 23.2324C105.52 21.377 105.796 19.8551 106.35 18.667C107.049 17.1533 107.725 16.0465 108.376 15.3467C110.069 13.5563 112.03 12.3763 114.26 11.8066C115.171 11.5788 116.294 11.4486 117.629 11.416C120.852 11.416 123.081 12.1647 124.318 13.6621C125.132 14.3945 125.669 15.2816 125.93 16.3232C126.027 16.7464 126.084 17.2021 126.101 17.6904V17.959C126.101 18.3496 126.076 18.7402 126.027 19.1309C125.686 20.8887 124.432 22.5244 122.268 24.0381C120.803 25.0635 119.183 25.804 117.409 26.2598C116.547 26.4876 115.643 26.6423 114.699 26.7236C114.097 26.7725 113.511 26.7969 112.941 26.7969C110.988 26.7969 109.271 26.4714 107.79 25.8203C108.213 27.4642 109.068 28.9209 110.354 30.1904C112.258 32.111 114.553 33.0713 117.238 33.0713C120.591 32.9574 123.163 31.5169 124.953 28.75L126.906 30.1904C126.532 30.695 126.109 31.1833 125.637 31.6553C123.326 33.9665 120.526 35.1221 117.238 35.1221C113.983 35.1221 111.2 33.9665 108.889 31.6553C106.87 29.6533 105.772 27.3665 105.593 24.7949ZM133.132 16.2988C134.873 13.2552 136.835 11.5055 139.016 11.0498L140.017 13.8818C138.096 13.9469 136.411 14.7363 134.963 16.25C134.051 17.2754 133.457 18.4554 133.181 19.79C133.002 21.5804 132.912 23.4521 132.912 25.4053C132.912 26.2679 132.928 27.1387 132.961 28.0176C133.075 30.9473 133.189 33.2747 133.303 35H130.739C130.853 33.2747 130.951 30.9473 131.032 28.0176C131.065 26.569 131.081 25.1042 131.081 23.623C131.081 22.1257 131.065 20.6283 131.032 19.1309C130.951 16.1198 130.853 13.6702 130.739 11.7822H133.303C133.238 12.7913 133.181 14.2969 133.132 16.2988ZM149.343 32.1191C146.332 24.8926 143.231 18.1136 140.041 11.7822H143.19C145.697 18.0485 148.057 23.859 150.271 29.2139C153.021 22.2803 155.161 16.4697 156.691 11.7822H159.841C157.676 16.6976 155.324 22.3454 152.785 28.7256C150.246 35.0895 147.976 40.9489 145.974 46.3037L143.435 45.4004C144.704 43.4473 146.674 39.0202 149.343 32.1191Z" fill="black"/>
</svg>
