<svg width="168" height="55" viewBox="0 0 168 55" fill="none" xmlns="http://www.w3.org/2000/svg">
<g filter="url(#filter0_d_292_38)">
<path d="M6.8584 19.7881C6.8584 24.3291 8.03027 28.0319 10.374 30.8965C12.734 33.7448 15.7533 35.1689 19.4316 35.1689C22.1497 35.1689 24.2575 34.7865 25.7549 34.0215C27.2686 33.2402 28.3509 32.2637 29.002 31.0918L31.2236 32.3613C30.0192 33.7448 28.4811 34.8841 26.6094 35.7793C24.7376 36.6745 22.3451 37.1221 19.4316 37.1221C15.0046 37.1221 11.4401 35.5514 8.73828 32.4102C6.03646 29.2689 4.68555 25.0615 4.68555 19.7881C4.68555 14.5309 6.03646 10.3317 8.73828 7.19043C11.4401 4.04915 15.0046 2.47852 19.4316 2.47852C22.3451 2.47852 24.7376 2.92611 26.6094 3.82129C28.4811 4.71647 30.0192 5.85579 31.2236 7.23926L29.002 8.50879C28.3509 7.33691 27.2686 6.36849 25.7549 5.60352C24.2575 4.82227 22.1497 4.43164 19.4316 4.43164C15.7533 4.43164 12.734 5.86393 10.374 8.72852C8.03027 11.5768 6.8584 15.2633 6.8584 19.7881ZM35.7646 30.0176V19.7393C35.7646 14.0101 35.6426 8.25651 35.3984 2.47852H38.084C37.8398 8.25651 37.7178 14.0101 37.7178 19.7393C37.7178 23.5153 37.7503 26.6729 37.8154 29.2119C37.8968 31.7347 38.0921 33.2484 38.4014 33.7529C38.9548 34.4528 39.5895 34.8027 40.3057 34.8027C41.0055 34.8027 41.7298 34.6644 42.4785 34.3877L42.1367 36.9023C41.8275 37 41.4043 37.0488 40.8672 37.0488C40.5742 37.0488 40.2568 37.0326 39.915 37C38.9059 36.9186 38.0514 36.5768 37.3516 35.9746C36.2936 35.0957 35.7646 33.11 35.7646 30.0176ZM56.9561 13.3672C60.4066 13.3672 63.2467 14.4577 65.4766 16.6387C67.6901 18.8359 68.7969 21.7087 68.7969 25.2568C68.7969 28.7725 67.6901 31.6289 65.4766 33.8262C63.2467 36.0234 60.4066 37.1221 56.9561 37.1221C53.5381 37.1221 50.7142 36.0234 48.4844 33.8262C46.2383 31.6289 45.1152 28.7725 45.1152 25.2568C45.1152 21.7087 46.2383 18.8359 48.4844 16.6387C50.7142 14.4577 53.5381 13.3672 56.9561 13.3672ZM49.9248 18.0547C48.0856 19.8939 47.166 22.2946 47.166 25.2568C47.166 28.2191 48.0856 30.6117 49.9248 32.4346C51.7477 34.1761 54.0915 35.0469 56.9561 35.0469C59.8206 35.0469 62.1725 34.1761 64.0117 32.4346C65.8346 30.6117 66.7461 28.2191 66.7461 25.2568C66.7461 22.2946 65.8346 19.8939 64.0117 18.0547C62.1725 16.2969 59.8206 15.418 56.9561 15.418C54.0915 15.418 51.7477 16.2969 49.9248 18.0547ZM77.1221 16.1748C77.1058 17.363 77.0977 18.5511 77.0977 19.7393C77.0977 23.5153 77.1302 26.6729 77.1953 29.2119C77.2767 31.7347 77.472 33.2484 77.7812 33.7529C78.3346 34.4528 78.9694 34.8027 79.6855 34.8027C80.3854 34.8027 81.1097 34.6644 81.8584 34.3877L81.5166 36.9023C81.2074 37 80.7842 37.0488 80.2471 37.0488C79.9541 37.0488 79.6367 37.0326 79.2949 37C78.2858 36.9186 77.4313 36.5768 76.7314 35.9746C75.6735 35.0957 75.1445 33.11 75.1445 30.0176V19.7393C75.1445 18.5674 75.1364 17.3955 75.1201 16.2236C73.4111 16.2887 72.2555 16.362 71.6533 16.4434V14.0264C72.2555 14.1077 73.403 14.181 75.0957 14.2461C75.0469 10.3398 74.9411 6.41732 74.7783 2.47852H77.4639C77.3011 6.43359 77.1872 10.3724 77.1221 14.2949C77.2848 14.3112 77.4476 14.3193 77.6104 14.3193C80.5726 14.238 82.485 14.1403 83.3477 14.0264V16.4434C82.485 16.3294 80.5726 16.2318 77.6104 16.1504C77.4476 16.1504 77.2848 16.1585 77.1221 16.1748ZM88.1572 26.7705C88.2061 30.221 88.3037 33.6309 88.4502 37H85.7646C86.0088 31.222 86.1309 25.4684 86.1309 19.7393C86.1309 14.0101 86.0088 8.25651 85.7646 2.47852H88.4502C88.2061 8.25651 88.084 14.0101 88.084 19.7393V20.8867C88.6374 18.9987 89.3779 17.5339 90.3057 16.4922C92.1449 14.6042 94.4561 13.652 97.2393 13.6357C99.8434 13.652 101.959 14.6367 103.587 16.5898C105.231 18.5592 106.142 21.5866 106.321 25.6719C106.5 29.7409 106.647 33.5169 106.761 37H104.051C104.246 34.9818 104.344 32.8333 104.344 30.5547C104.344 29.1387 104.311 27.6331 104.246 26.0381C104.035 22.0993 103.286 19.3649 102 17.835C100.714 16.3376 98.9564 15.5807 96.7266 15.5645C94.0247 15.5807 91.9333 16.8584 90.4521 19.3975C89.1012 21.7087 88.3363 24.1663 88.1572 26.7705ZM111.375 25.0371C112.661 26.1439 114.516 26.6973 116.941 26.6973C117.169 26.6973 117.413 26.6891 117.674 26.6729C118.895 26.624 120.042 26.4613 121.116 26.1846C122.467 25.8428 123.688 25.3219 124.778 24.6221C126.683 23.3851 127.732 22.1074 127.928 20.7891C127.977 20.4961 128.001 20.2194 128.001 19.959C128.001 19.6335 127.96 19.3242 127.879 19.0312C127.7 18.3151 127.342 17.6722 126.805 17.1025C125.861 16.1097 124.103 15.6133 121.531 15.6133H121.067C120.335 15.6621 119.643 15.7679 118.992 15.9307C117.218 16.3864 115.639 17.3467 114.256 18.8115C112.384 20.7972 111.424 22.8724 111.375 25.0371ZM109.593 26.7949C109.544 26.2578 109.52 25.737 109.52 25.2324C109.52 23.377 109.796 21.8551 110.35 20.667C111.049 19.1533 111.725 18.0465 112.376 17.3467C114.069 15.5563 116.03 14.3763 118.26 13.8066C119.171 13.5788 120.294 13.4486 121.629 13.416C124.852 13.416 127.081 14.1647 128.318 15.6621C129.132 16.3945 129.669 17.2816 129.93 18.3232C130.027 18.7464 130.084 19.2021 130.101 19.6904V19.959C130.101 20.3496 130.076 20.7402 130.027 21.1309C129.686 22.8887 128.432 24.5244 126.268 26.0381C124.803 27.0635 123.183 27.804 121.409 28.2598C120.547 28.4876 119.643 28.6423 118.699 28.7236C118.097 28.7725 117.511 28.7969 116.941 28.7969C114.988 28.7969 113.271 28.4714 111.79 27.8203C112.213 29.4642 113.068 30.9209 114.354 32.1904C116.258 34.111 118.553 35.0713 121.238 35.0713C124.591 34.9574 127.163 33.5169 128.953 30.75L130.906 32.1904C130.532 32.695 130.109 33.1833 129.637 33.6553C127.326 35.9665 124.526 37.1221 121.238 37.1221C117.983 37.1221 115.2 35.9665 112.889 33.6553C110.87 31.6533 109.772 29.3665 109.593 26.7949ZM137.132 18.2988C138.873 15.2552 140.835 13.5055 143.016 13.0498L144.017 15.8818C142.096 15.9469 140.411 16.7363 138.963 18.25C138.051 19.2754 137.457 20.4554 137.181 21.79C137.002 23.5804 136.912 25.4521 136.912 27.4053C136.912 28.2679 136.928 29.1387 136.961 30.0176C137.075 32.9473 137.189 35.2747 137.303 37H134.739C134.853 35.2747 134.951 32.9473 135.032 30.0176C135.065 28.569 135.081 27.1042 135.081 25.623C135.081 24.1257 135.065 22.6283 135.032 21.1309C134.951 18.1198 134.853 15.6702 134.739 13.7822H137.303C137.238 14.7913 137.181 16.2969 137.132 18.2988ZM153.343 34.1191C150.332 26.8926 147.231 20.1136 144.041 13.7822H147.19C149.697 20.0485 152.057 25.859 154.271 31.2139C157.021 24.2803 159.161 18.4697 160.691 13.7822H163.841C161.676 18.6976 159.324 24.3454 156.785 30.7256C154.246 37.0895 151.976 42.9489 149.974 48.3037L147.435 47.4004C148.704 45.4473 150.674 41.0202 153.343 34.1191Z" fill="black"/>
<path d="M10.374 30.8965L9.98704 31.2131L9.98901 31.2155L10.374 30.8965ZM25.7549 34.0215L25.9824 34.4667L25.9842 34.4658L25.7549 34.0215ZM29.002 31.0918L29.25 30.6577L28.8106 30.4066L28.5649 30.849L29.002 31.0918ZM31.2236 32.3613L31.6007 32.6896L32.0011 32.2297L31.4717 31.9272L31.2236 32.3613ZM26.6094 35.7793L26.3936 35.3282L26.6094 35.7793ZM8.73828 32.4102L8.35921 32.7362L8.73828 32.4102ZM26.6094 3.82129L26.3936 4.27236L26.6094 3.82129ZM31.2236 7.23926L31.4717 7.67338L32.0011 7.37085L31.6007 6.91095L31.2236 7.23926ZM29.002 8.50879L28.5649 8.75161L28.8106 9.19399L29.25 8.94291L29.002 8.50879ZM25.7549 5.60352L25.5236 6.04685L25.5294 6.04977L25.7549 5.60352ZM10.374 8.72852L9.98812 8.41059L9.98793 8.41082L10.374 8.72852ZM6.3584 19.7881C6.3584 24.4175 7.55474 28.2403 9.98704 31.2131L10.761 30.5799C8.5058 27.8235 7.3584 24.2407 7.3584 19.7881H6.3584ZM9.98901 31.2155C12.4434 34.1777 15.6034 35.6689 19.4316 35.6689V34.6689C15.9031 34.6689 13.0247 33.3119 10.759 30.5775L9.98901 31.2155ZM19.4316 35.6689C22.1854 35.6689 24.384 35.2833 25.9824 34.4667L25.5274 33.5762C24.1309 34.2896 22.114 34.6689 19.4316 34.6689V35.6689ZM25.9842 34.4658C27.5619 33.6515 28.7287 32.6133 29.439 31.3346L28.5649 30.849C27.9732 31.9141 26.9752 32.8289 25.5256 33.5772L25.9842 34.4658ZM28.7539 31.5259L30.9756 32.7954L31.4717 31.9272L29.25 30.6577L28.7539 31.5259ZM30.8465 32.033C29.6925 33.3586 28.2118 34.4587 26.3936 35.3282L26.8251 36.2304C28.7504 35.3096 30.346 34.131 31.6007 32.6896L30.8465 32.033ZM26.3936 35.3282C24.6108 36.1809 22.2986 36.6221 19.4316 36.6221V37.6221C22.3915 37.6221 24.8645 37.1681 26.8251 36.2304L26.3936 35.3282ZM19.4316 36.6221C15.1389 36.6221 11.717 35.1066 9.11735 32.0841L8.35921 32.7362C11.1632 35.9962 14.8702 37.6221 19.4316 37.6221V36.6221ZM9.11735 32.0841C6.51293 29.0561 5.18555 24.9754 5.18555 19.7881H4.18555C4.18555 25.1477 5.55998 29.4817 8.35921 32.7362L9.11735 32.0841ZM5.18555 19.7881C5.18555 14.6175 6.5127 10.5448 9.11735 7.51647L8.35921 6.86439C5.56021 10.1186 4.18555 14.4443 4.18555 19.7881H5.18555ZM9.11735 7.51647C11.717 4.49394 15.1389 2.97852 19.4316 2.97852V1.97852C14.8702 1.97852 11.1632 3.60437 8.35921 6.86439L9.11735 7.51647ZM19.4316 2.97852C22.2986 2.97852 24.6108 3.41968 26.3936 4.27236L26.8251 3.37022C24.8645 2.43253 22.3915 1.97852 19.4316 1.97852V2.97852ZM26.3936 4.27236C28.2118 5.14193 29.6925 6.24196 30.8465 7.56757L31.6007 6.91095C30.346 5.46963 28.7504 4.29101 26.8251 3.37022L26.3936 4.27236ZM30.9756 6.80514L28.7539 8.07467L29.25 8.94291L31.4717 7.67338L30.9756 6.80514ZM29.439 8.26597C28.728 6.98604 27.5597 5.9554 25.9804 5.15727L25.5294 6.04977C26.9774 6.78158 27.9739 7.68779 28.5649 8.75161L29.439 8.26597ZM25.9862 5.16022C24.3866 4.32569 22.1865 3.93164 19.4316 3.93164V4.93164C22.113 4.93164 24.1283 5.31884 25.5236 6.04681L25.9862 5.16022ZM19.4316 3.93164C15.6023 3.93164 12.4421 5.43192 9.98812 8.41059L10.7599 9.04645C13.026 6.29594 15.9042 4.93164 19.4316 4.93164V3.93164ZM9.98793 8.41082C7.55496 11.3676 6.3584 15.1746 6.3584 19.7881H7.3584C7.3584 15.3521 8.50559 11.7861 10.7601 9.04621L9.98793 8.41082ZM35.3984 2.47852V1.97852H34.8769L34.8989 2.49962L35.3984 2.47852ZM38.084 2.47852L38.5835 2.49962L38.6056 1.97852H38.084V2.47852ZM37.8154 29.2119L37.3156 29.2247L37.3157 29.228L37.8154 29.2119ZM38.4014 33.7529L37.9751 34.0142L37.9907 34.0396L38.0092 34.063L38.4014 33.7529ZM42.4785 34.3877L42.974 34.455L43.0861 33.6301L42.3052 33.9187L42.4785 34.3877ZM42.1367 36.9023L42.2873 37.3791L42.5895 37.2837L42.6322 36.9697L42.1367 36.9023ZM39.915 37L39.9624 36.5022L39.9552 36.5016L39.915 37ZM37.3516 35.9746L37.6777 35.5955L37.6711 35.59L37.3516 35.9746ZM36.2646 30.0176V19.7393H35.2646V30.0176H36.2646ZM36.2646 19.7393C36.2646 14.003 36.1424 8.24237 35.898 2.45741L34.8989 2.49962C35.1427 8.27065 35.2646 14.0172 35.2646 19.7393H36.2646ZM35.3984 2.97852H38.084V1.97852H35.3984V2.97852ZM37.5844 2.45741C37.34 8.24237 37.2178 14.003 37.2178 19.7393H38.2178C38.2178 14.0172 38.3397 8.27065 38.5835 2.49962L37.5844 2.45741ZM37.2178 19.7393C37.2178 23.5177 37.2503 26.6799 37.3156 29.2247L38.3153 29.1991C38.2503 26.6658 38.2178 23.5129 38.2178 19.7393H37.2178ZM37.3157 29.228C37.3566 30.4966 37.4265 31.5236 37.5271 32.3032C37.5773 32.6929 37.6363 33.0289 37.7057 33.3066C37.7733 33.5769 37.8583 33.8237 37.9751 34.0142L38.8277 33.4916C38.7898 33.4298 38.7344 33.2983 38.6759 33.064C38.6191 32.8371 38.5662 32.5424 38.5188 32.1753C38.4241 31.4412 38.3556 30.4501 38.3152 29.1958L37.3157 29.228ZM38.0092 34.063C38.6317 34.8504 39.3996 35.3027 40.3057 35.3027V34.3027C39.7795 34.3027 39.2778 34.0552 38.7936 33.4428L38.0092 34.063ZM40.3057 35.3027C41.0724 35.3027 41.8554 35.151 42.6518 34.8567L42.3052 33.9187C41.6043 34.1777 40.9387 34.3027 40.3057 34.3027V35.3027ZM41.9831 34.3204L41.6413 36.835L42.6322 36.9697L42.974 34.455L41.9831 34.3204ZM41.9862 36.4256C41.7471 36.5011 41.3821 36.5488 40.8672 36.5488V37.5488C41.4265 37.5488 41.9079 37.4989 42.2873 37.3791L41.9862 36.4256ZM40.8672 36.5488C40.5925 36.5488 40.2911 36.5336 39.9624 36.5023L39.8676 37.4977C40.2226 37.5316 40.556 37.5488 40.8672 37.5488V36.5488ZM39.9552 36.5016C39.0409 36.4279 38.2895 36.1221 37.6777 35.5956L37.0254 36.3536C37.8134 37.0316 38.7709 37.4094 39.8748 37.4984L39.9552 36.5016ZM37.6711 35.59C37.2524 35.2422 36.8948 34.6369 36.6445 33.6975C36.3953 32.762 36.2646 31.5399 36.2646 30.0176H35.2646C35.2646 31.5877 35.3985 32.9046 35.6782 33.9549C35.9569 35.0011 36.3928 35.8281 37.0321 36.3592L37.6711 35.59ZM65.4766 16.6387L65.8288 16.2838L65.8262 16.2812L65.4766 16.6387ZM65.4766 33.8262L65.8275 34.1823L65.8288 34.181L65.4766 33.8262ZM48.4844 33.8262L48.8353 33.47L48.834 33.4688L48.4844 33.8262ZM48.4844 16.6387L48.1348 16.2812L48.1347 16.2813L48.4844 16.6387ZM49.9248 18.0547L49.5777 17.6947L49.5713 17.7011L49.9248 18.0547ZM49.9248 32.4346L49.5728 32.7898L49.5794 32.7961L49.9248 32.4346ZM64.0117 32.4346L64.3556 32.7978L64.3653 32.7881L64.0117 32.4346ZM64.0117 18.0547L64.367 17.7026L64.3572 17.6932L64.0117 18.0547ZM56.9561 13.8672C60.2911 13.8672 63.0009 14.9166 65.1269 16.9961L65.8262 16.2812C63.4926 13.9988 60.5221 12.8672 56.9561 12.8672V13.8672ZM65.1243 16.9935C67.23 19.0837 68.2969 21.8219 68.2969 25.2568H69.2969C69.2969 21.5954 68.1502 18.5881 65.8288 16.2838L65.1243 16.9935ZM68.2969 25.2568C68.2969 28.6577 67.2309 31.3802 65.1243 33.4713L65.8288 34.181C68.1493 31.8776 69.2969 28.8872 69.2969 25.2568H68.2969ZM65.1256 33.47C62.9993 35.5653 60.2899 36.6221 56.9561 36.6221V37.6221C60.5232 37.6221 63.4942 36.4816 65.8275 34.1823L65.1256 33.47ZM56.9561 36.6221C53.6562 36.6221 50.9626 35.5662 48.8353 33.47L48.1334 34.1823C50.4658 36.4807 53.42 37.6221 56.9561 37.6221V36.6221ZM48.834 33.4688C46.6959 31.3772 45.6152 28.6555 45.6152 25.2568H44.6152C44.6152 28.8894 45.7806 31.8807 48.1347 34.1836L48.834 33.4688ZM45.6152 25.2568C45.6152 21.8242 46.6969 19.0868 48.834 16.9961L48.1347 16.2813C45.7797 18.5851 44.6152 21.5932 44.6152 25.2568H45.6152ZM48.834 16.9961C50.961 14.9157 53.6551 13.8672 56.9561 13.8672V12.8672C53.4211 12.8672 50.4674 13.9997 48.1348 16.2812L48.834 16.9961ZM49.5713 17.7011C47.625 19.6474 46.666 22.182 46.666 25.2568H47.666C47.666 22.4072 48.5462 20.1404 50.2784 18.4082L49.5713 17.7011ZM46.666 25.2568C46.666 28.3316 47.625 30.8591 49.5728 32.7897L50.2768 32.0794C48.5462 30.3642 47.666 28.1066 47.666 25.2568H46.666ZM49.5794 32.7961C51.5082 34.6388 53.9818 35.5469 56.9561 35.5469V34.5469C54.2012 34.5469 51.9872 33.7134 50.2702 32.073L49.5794 32.7961ZM56.9561 35.5469C59.9304 35.5469 62.4111 34.6388 64.3555 32.7976L63.6679 32.0715C61.934 33.7134 59.7108 34.5469 56.9561 34.5469V35.5469ZM64.3653 32.7881C66.2961 30.8573 67.2461 28.3302 67.2461 25.2568H66.2461C66.2461 28.1079 65.3732 30.366 63.6582 32.081L64.3653 32.7881ZM67.2461 25.2568C67.2461 22.1833 66.2961 19.6492 64.3668 17.7027L63.6566 18.4067C65.3732 20.1386 66.2461 22.4059 66.2461 25.2568H67.2461ZM64.3572 17.6932C62.413 15.8351 59.9318 14.918 56.9561 14.918V15.918C59.7095 15.918 61.9321 16.7587 63.6663 18.4161L64.3572 17.6932ZM56.9561 14.918C53.9804 14.918 51.5063 15.8351 49.5777 17.6948L50.2719 18.4146C51.9891 16.7587 54.2025 15.918 56.9561 15.918V14.918ZM77.1221 16.1748L77.0723 15.6773L76.6282 15.7217L76.6221 16.168L77.1221 16.1748ZM77.1953 29.2119L76.6955 29.2247L76.6956 29.228L77.1953 29.2119ZM77.7812 33.7529L77.3549 34.0142L77.3705 34.0396L77.389 34.063L77.7812 33.7529ZM81.8584 34.3877L82.3538 34.455L82.466 33.6301L81.6851 33.9187L81.8584 34.3877ZM81.5166 36.9023L81.6672 37.3791L81.9694 37.2837L82.012 36.9697L81.5166 36.9023ZM79.2949 37L79.3423 36.5022L79.3351 36.5016L79.2949 37ZM76.7314 35.9746L77.0576 35.5955L77.051 35.59L76.7314 35.9746ZM75.1201 16.2236L75.6201 16.2167L75.613 15.7045L75.1011 15.724L75.1201 16.2236ZM71.6533 16.4434H71.1533V17.0155L71.7203 16.9389L71.6533 16.4434ZM71.6533 14.0264L71.7203 13.5309L71.1533 13.4543V14.0264H71.6533ZM75.0957 14.2461L75.0765 14.7457L75.6022 14.7659L75.5957 14.2398L75.0957 14.2461ZM74.7783 2.47852V1.97852H74.2572L74.2787 2.49916L74.7783 2.47852ZM77.4639 2.47852L77.9634 2.49907L77.9849 1.97852H77.4639V2.47852ZM77.1221 14.2949L76.6221 14.2866L76.6145 14.7467L77.0723 14.7924L77.1221 14.2949ZM77.6104 14.3193V14.8195L77.6241 14.8191L77.6104 14.3193ZM83.3477 14.0264H83.8477V13.456L83.2822 13.5307L83.3477 14.0264ZM83.3477 16.4434L83.2822 16.9391L83.8477 17.0137V16.4434H83.3477ZM77.6104 16.1504L77.6241 15.6504H77.6104V16.1504ZM76.6221 16.168C76.6058 17.3584 76.5977 18.5488 76.5977 19.7393H77.5977C77.5977 18.5534 77.6058 17.3675 77.622 16.1817L76.6221 16.168ZM76.5977 19.7393C76.5977 23.5177 76.6302 26.6799 76.6955 29.2247L77.6951 29.1991C77.6302 26.6658 77.5977 23.5129 77.5977 19.7393H76.5977ZM76.6956 29.228C76.7365 30.4966 76.8064 31.5236 76.9069 32.3032C76.9572 32.6929 77.0162 33.0289 77.0856 33.3066C77.1532 33.5769 77.2382 33.8237 77.3549 34.0142L78.2076 33.4916C78.1697 33.4298 78.1143 33.2983 78.0557 33.064C77.999 32.8371 77.9461 32.5424 77.8987 32.1753C77.804 31.4412 77.7355 30.4501 77.6951 29.1958L76.6956 29.228ZM77.389 34.063C78.0116 34.8504 78.7795 35.3027 79.6855 35.3027V34.3027C79.1593 34.3027 78.6577 34.0552 78.1735 33.4428L77.389 34.063ZM79.6855 35.3027C80.4523 35.3027 81.2352 35.151 82.0317 34.8567L81.6851 33.9187C80.9842 34.1777 80.3186 34.3027 79.6855 34.3027V35.3027ZM81.363 34.3204L81.0212 36.835L82.012 36.9697L82.3538 34.455L81.363 34.3204ZM81.366 36.4256C81.127 36.5011 80.7619 36.5488 80.2471 36.5488V37.5488C80.8064 37.5488 81.2878 37.4989 81.6672 37.3791L81.366 36.4256ZM80.2471 36.5488C79.9723 36.5488 79.671 36.5336 79.3423 36.5023L79.2475 37.4977C79.6025 37.5316 79.9359 37.5488 80.2471 37.5488V36.5488ZM79.3351 36.5016C78.4208 36.4279 77.6694 36.1221 77.0576 35.5956L76.4053 36.3536C77.1932 37.0316 78.1508 37.4094 79.2547 37.4984L79.3351 36.5016ZM77.051 35.59C76.6323 35.2422 76.2747 34.6369 76.0244 33.6975C75.7752 32.762 75.6445 31.5399 75.6445 30.0176H74.6445C74.6445 31.5877 74.7783 32.9046 75.0581 33.9549C75.3368 35.0011 75.7726 35.8281 76.4119 36.3592L77.051 35.59ZM75.6445 30.0176V19.7393H74.6445V30.0176H75.6445ZM75.6445 19.7393C75.6445 18.5651 75.6364 17.3909 75.6201 16.2167L74.6202 16.2306C74.6364 17.4001 74.6445 18.5697 74.6445 19.7393H75.6445ZM75.1011 15.724C73.395 15.789 72.216 15.8628 71.5864 15.9479L71.7203 16.9389C72.295 16.8612 73.4273 16.7885 75.1392 16.7233L75.1011 15.724ZM72.1533 16.4434V14.0264H71.1533V16.4434H72.1533ZM71.5864 14.5219C72.2159 14.6069 73.3865 14.6807 75.0765 14.7457L75.1149 13.7465C73.4195 13.6813 72.2952 13.6086 71.7203 13.5309L71.5864 14.5219ZM75.5957 14.2398C75.5468 10.3288 75.4409 6.40143 75.2779 2.45787L74.2787 2.49916C74.4413 6.43321 74.547 10.3509 74.5957 14.2523L75.5957 14.2398ZM74.7783 2.97852H77.4639V1.97852H74.7783V2.97852ZM76.9643 2.45796C76.8014 6.41708 76.6873 10.36 76.6221 14.2866L77.622 14.3032C77.687 10.3848 77.8009 6.4501 77.9634 2.49907L76.9643 2.45796ZM77.0723 14.7924C77.2515 14.8104 77.4309 14.8193 77.6104 14.8193V13.8193C77.4643 13.8193 77.3181 13.812 77.1718 13.7974L77.0723 14.7924ZM77.6241 14.8191C80.5795 14.738 82.5197 14.6401 83.4131 14.5221L83.2822 13.5307C82.4504 13.6405 80.5657 13.738 77.5966 13.8195L77.6241 14.8191ZM82.8477 14.0264V16.4434H83.8477V14.0264H82.8477ZM83.4131 15.9477C82.5197 15.8297 80.5795 15.7318 77.6241 15.6506L77.5966 16.6502C80.5657 16.7318 82.4504 16.8292 83.2822 16.9391L83.4131 15.9477ZM77.6104 15.6504C77.4309 15.6504 77.2515 15.6594 77.0723 15.6773L77.1718 16.6723C77.3181 16.6577 77.4643 16.6504 77.6104 16.6504V15.6504ZM88.1572 26.7705L87.6584 26.7362L87.657 26.7569L87.6573 26.7776L88.1572 26.7705ZM88.4502 37V37.5H88.9724L88.9497 36.9783L88.4502 37ZM85.7646 37L85.2651 36.9789L85.2431 37.5H85.7646V37ZM85.7646 2.47852V1.97852H85.2431L85.2651 2.49962L85.7646 2.47852ZM88.4502 2.47852L88.9497 2.49962L88.9718 1.97852H88.4502V2.47852ZM88.084 20.8867H87.584L88.5638 21.0274L88.084 20.8867ZM90.3057 16.4922L89.9475 16.1433L89.9397 16.1513L89.9323 16.1596L90.3057 16.4922ZM97.2393 13.6357L97.2424 13.1357L97.2363 13.1358L97.2393 13.6357ZM103.587 16.5898L103.203 16.9099L103.203 16.9102L103.587 16.5898ZM106.321 25.6719L105.822 25.6938L105.822 25.6939L106.321 25.6719ZM106.761 37V37.5H107.277L107.26 36.9837L106.761 37ZM104.051 37L103.553 36.9518L103.5 37.5H104.051V37ZM104.246 26.0381L104.746 26.0177L104.745 26.0113L104.246 26.0381ZM102 17.835L102.383 17.5133L102.379 17.5092L102 17.835ZM96.7266 15.5645L96.7302 15.0644L96.7236 15.0645L96.7266 15.5645ZM90.4521 19.3975L90.8838 19.6498L90.884 19.6494L90.4521 19.3975ZM87.6573 26.7776C87.7062 30.2329 87.804 33.6476 87.9507 37.0217L88.9497 36.9783C88.8035 33.6141 88.7059 30.2092 88.6572 26.7634L87.6573 26.7776ZM88.4502 36.5H85.7646V37.5H88.4502V36.5ZM86.2642 37.0211C86.5086 31.2361 86.6309 25.4755 86.6309 19.7393H85.6309C85.6309 25.4613 85.5089 31.2079 85.2651 36.9789L86.2642 37.0211ZM86.6309 19.7393C86.6309 14.003 86.5086 8.24237 86.2642 2.45741L85.2651 2.49962C85.5089 8.27065 85.6309 14.0172 85.6309 19.7393H86.6309ZM85.7646 2.97852H88.4502V1.97852H85.7646V2.97852ZM87.9506 2.45741C87.7062 8.24237 87.584 14.003 87.584 19.7393H88.584C88.584 14.0172 88.7059 8.27065 88.9497 2.49962L87.9506 2.45741ZM87.584 19.7393V20.8867H88.584V19.7393H87.584ZM88.5638 21.0274C89.1043 19.1832 89.8165 17.7932 90.679 16.8247L89.9323 16.1596C88.9394 17.2745 88.1704 18.8142 87.6042 20.7461L88.5638 21.0274ZM90.6638 16.8411C92.4039 15.0548 94.5845 14.1513 97.2422 14.1357L97.2363 13.1358C94.3276 13.1528 91.8858 14.1536 89.9475 16.1433L90.6638 16.8411ZM97.2361 14.1357C99.6971 14.1511 101.672 15.0731 103.203 16.9099L103.971 16.2698C102.247 14.2003 99.9897 13.1529 97.2424 13.1358L97.2361 14.1357ZM103.203 16.9102C104.746 18.7586 105.645 21.6575 105.822 25.6938L106.821 25.65C106.64 21.5156 105.716 18.3599 103.971 16.2694L103.203 16.9102ZM105.822 25.6939C106.001 29.7613 106.147 33.5354 106.261 37.0163L107.26 36.9837C107.146 33.4984 107 29.7205 106.821 25.6499L105.822 25.6939ZM106.761 36.5H104.051V37.5H106.761V36.5ZM104.548 37.0482C104.745 35.0121 104.844 32.8475 104.844 30.5547H103.844C103.844 32.8192 103.747 34.9514 103.553 36.9518L104.548 37.0482ZM104.844 30.5547C104.844 29.1311 104.811 27.6187 104.746 26.0177L103.747 26.0585C103.811 27.6476 103.844 29.1463 103.844 30.5547H104.844ZM104.745 26.0113C104.533 22.053 103.78 19.1753 102.383 17.5133L101.617 18.1567C102.792 19.5546 103.536 22.1456 103.747 26.0649L104.745 26.0113ZM102.379 17.5092C100.987 15.8872 99.0836 15.0816 96.7302 15.0645L96.7229 16.0644C98.8291 16.0798 100.442 16.7879 101.621 18.1607L102.379 17.5092ZM96.7236 15.0645C93.8269 15.0819 91.581 16.47 90.0203 19.1455L90.884 19.6494C92.2856 17.2468 94.2226 16.0795 96.7296 16.0644L96.7236 15.0645ZM90.0205 19.1451C88.6317 21.5211 87.8429 24.0532 87.6584 26.7362L88.656 26.8048C88.8297 24.2795 89.5708 21.8962 90.8838 19.6498L90.0205 19.1451ZM111.375 25.0371L110.875 25.0258L110.87 25.262L111.049 25.4161L111.375 25.0371ZM117.674 26.6729L117.654 26.1731L117.643 26.1738L117.674 26.6729ZM121.116 26.1846L120.994 25.6998L120.991 25.7004L121.116 26.1846ZM124.778 24.6221L125.048 25.0429L125.051 25.0414L124.778 24.6221ZM127.928 20.7891L127.434 20.7068L127.433 20.7158L127.928 20.7891ZM127.879 19.0312L127.394 19.1526L127.397 19.1651L127.879 19.0312ZM126.805 17.1025L127.168 16.7595L127.167 16.758L126.805 17.1025ZM121.067 15.6133V15.1133H121.051L121.034 15.1144L121.067 15.6133ZM118.992 15.9307L118.871 15.4456L118.868 15.4464L118.992 15.9307ZM114.256 18.8115L113.892 18.4682L113.892 18.4686L114.256 18.8115ZM109.593 26.7949L110.092 26.7602L110.091 26.7497L109.593 26.7949ZM110.35 20.667L110.803 20.8781L110.803 20.8768L110.35 20.667ZM112.376 17.3467L112.013 17.0032L112.01 17.0061L112.376 17.3467ZM118.26 13.8066L118.138 13.3216L118.136 13.3222L118.26 13.8066ZM121.629 13.416V12.9159L121.617 12.9162L121.629 13.416ZM128.318 15.6621L127.933 15.9806L127.956 16.009L127.984 16.0338L128.318 15.6621ZM129.93 18.3232L130.417 18.2108L130.415 18.202L129.93 18.3232ZM130.101 19.6904H130.601V19.6821L130.6 19.6738L130.101 19.6904ZM130.027 21.1309L130.518 21.2263L130.521 21.2097L130.523 21.1929L130.027 21.1309ZM126.268 26.0381L125.981 25.6283L125.981 25.6285L126.268 26.0381ZM121.409 28.2598L121.285 27.7755L121.281 27.7763L121.409 28.2598ZM118.699 28.7236L118.74 29.222L118.742 29.2218L118.699 28.7236ZM111.79 27.8203L111.991 27.3626L111.049 26.9486L111.306 27.945L111.79 27.8203ZM114.354 32.1904L114.709 31.8384L114.705 31.8346L114.354 32.1904ZM121.238 35.0713V35.5713H121.247L121.255 35.571L121.238 35.0713ZM128.953 30.75L129.25 30.3476L128.822 30.0321L128.533 30.4784L128.953 30.75ZM130.906 32.1904L131.308 32.4884L131.607 32.0857L131.203 31.788L130.906 32.1904ZM129.637 33.6553L129.283 33.3017L129.637 33.6553ZM112.889 33.6553L113.242 33.3017L113.241 33.3003L112.889 33.6553ZM111.049 25.4161C112.458 26.6286 114.447 27.1973 116.941 27.1973V26.1973C114.585 26.1973 112.864 25.6591 111.701 24.6582L111.049 25.4161ZM116.941 27.1973C117.181 27.1973 117.436 27.1887 117.705 27.1719L117.643 26.1738C117.391 26.1895 117.158 26.1973 116.941 26.1973V27.1973ZM117.694 27.1725C118.946 27.1224 120.129 26.9551 121.241 26.6688L120.991 25.7004C119.955 25.9674 118.843 26.1257 117.654 26.1733L117.694 27.1725ZM121.239 26.6693C122.638 26.3153 123.909 25.774 125.048 25.0429L124.508 24.2013C123.466 24.8699 122.296 25.3703 120.994 25.6998L121.239 26.6693ZM125.051 25.0414C126.994 23.7788 128.195 22.396 128.422 20.8623L127.433 20.7158C127.27 21.8188 126.371 22.9914 124.506 24.2028L125.051 25.0414ZM128.421 20.8713C128.474 20.5548 128.501 20.2505 128.501 19.959H127.501C127.501 20.1883 127.479 20.4374 127.435 20.7069L128.421 20.8713ZM128.501 19.959C128.501 19.5914 128.455 19.2369 128.361 18.8974L127.397 19.1651C127.466 19.4115 127.501 19.6755 127.501 19.959H128.501ZM128.364 18.91C128.163 18.1057 127.761 17.3876 127.168 16.7595L126.441 17.4455C126.923 17.9568 127.237 18.5245 127.394 19.1525L128.364 18.91ZM127.167 16.758C126.074 15.6081 124.131 15.1133 121.531 15.1133V16.1133C124.074 16.1133 125.648 16.6113 126.442 17.4471L127.167 16.758ZM121.531 15.1133H121.067V16.1133H121.531V15.1133ZM121.034 15.1144C120.275 15.165 119.553 15.275 118.871 15.4456L119.113 16.4157C119.733 16.2608 120.395 16.1592 121.101 16.1122L121.034 15.1144ZM118.868 15.4464C116.993 15.9279 115.334 16.9419 113.892 18.4682L114.619 19.1548C115.945 17.7515 117.443 16.8449 119.117 16.4149L118.868 15.4464ZM113.892 18.4686C111.958 20.5199 110.927 22.7078 110.875 25.0258L111.875 25.0484C111.92 23.037 112.81 21.0745 114.62 19.1545L113.892 18.4686ZM110.091 26.7497C110.043 26.2266 110.02 25.7209 110.02 25.2324H109.02C109.02 25.7531 109.045 26.2891 109.095 26.8402L110.091 26.7497ZM110.02 25.2324C110.02 23.4217 110.29 21.9786 110.803 20.8781L109.896 20.4559C109.302 21.7317 109.02 23.3323 109.02 25.2324H110.02ZM110.803 20.8768C111.495 19.381 112.144 18.33 112.742 17.6872L112.01 17.0061C111.306 17.7631 110.604 18.9256 109.896 20.4572L110.803 20.8768ZM112.739 17.6902C114.372 15.9634 116.252 14.8357 118.384 14.2911L118.136 13.3222C115.808 13.9169 113.766 15.1492 112.013 17.0032L112.739 17.6902ZM118.381 14.2917C119.245 14.0756 120.329 13.9479 121.641 13.9159L121.617 12.9162C120.259 12.9493 119.097 13.0819 118.138 13.3216L118.381 14.2917ZM121.629 13.916C124.798 13.916 126.839 14.6559 127.933 15.9806L128.704 15.3437C127.324 13.6735 124.905 12.916 121.629 12.916V13.916ZM127.984 16.0338C128.725 16.701 129.209 17.5014 129.445 18.4445L130.415 18.202C130.13 17.0617 129.539 16.0881 128.653 15.2905L127.984 16.0338ZM129.442 18.4357C129.532 18.8238 129.586 19.2471 129.601 19.7071L130.6 19.6738C130.583 19.1572 130.523 18.669 130.417 18.2108L129.442 18.4357ZM129.601 19.6904V19.959H130.601V19.6904H129.601ZM129.601 19.959C129.601 20.3287 129.577 20.6986 129.531 21.0688L130.523 21.1929C130.575 20.7818 130.601 20.3705 130.601 19.959H129.601ZM129.537 21.0354C129.229 22.6165 128.089 24.154 125.981 25.6283L126.554 26.4478C128.775 24.8948 130.142 23.1608 130.518 21.2263L129.537 21.0354ZM125.981 25.6285C124.566 26.6186 123.002 27.3343 121.285 27.7755L121.534 28.744C123.364 28.2737 125.039 27.5084 126.554 26.4477L125.981 25.6285ZM121.281 27.7763C120.448 27.9964 119.573 28.1464 118.656 28.2255L118.742 29.2218C119.713 29.1381 120.645 28.9788 121.537 28.7432L121.281 27.7763ZM118.659 28.2253C118.069 28.2731 117.497 28.2969 116.941 28.2969V29.2969C117.525 29.2969 118.125 29.2719 118.74 29.222L118.659 28.2253ZM116.941 28.2969C115.043 28.2969 113.397 27.9806 111.991 27.3626L111.589 28.278C113.145 28.9621 114.933 29.2969 116.941 29.2969V28.2969ZM111.306 27.945C111.753 29.6822 112.656 31.2174 114.002 32.5462L114.705 31.8346C113.479 30.6244 112.673 29.2462 112.274 27.6957L111.306 27.945ZM113.998 32.5425C115.996 34.557 118.418 35.5713 121.238 35.5713V34.5713C118.687 34.5713 116.52 33.665 114.709 31.8384L113.998 32.5425ZM121.255 35.571C124.768 35.4516 127.492 33.9288 129.373 31.0216L128.533 30.4784C126.834 33.105 124.414 34.4631 121.221 34.5716L121.255 35.571ZM128.656 31.1524L130.609 32.5928L131.203 31.788L129.25 30.3476L128.656 31.1524ZM130.505 31.8925C130.146 32.3762 129.739 32.846 129.283 33.3017L129.99 34.0088C130.479 33.5206 130.918 33.0138 131.308 32.4884L130.505 31.8925ZM129.283 33.3017C127.066 35.5185 124.394 36.6221 121.238 36.6221V37.6221C124.658 37.6221 127.585 36.4144 129.99 34.0088L129.283 33.3017ZM121.238 36.6221C118.116 36.6221 115.46 35.5196 113.242 33.3017L112.535 34.0088C114.94 36.4134 117.85 37.6221 121.238 37.6221V36.6221ZM113.241 33.3003C111.299 31.3743 110.261 29.1981 110.092 26.7602L109.094 26.8296C109.282 29.535 110.442 31.9323 112.537 34.0103L113.241 33.3003ZM137.132 18.2988L136.632 18.2866L137.566 18.5471L137.132 18.2988ZM143.016 13.0498L143.487 12.8832L143.341 12.4709L142.913 12.5604L143.016 13.0498ZM144.017 15.8818L144.034 16.3815L144.715 16.3584L144.488 15.7152L144.017 15.8818ZM138.963 18.25L138.602 17.9043L138.595 17.9109L138.589 17.9178L138.963 18.25ZM137.181 21.79L136.691 21.6885L136.686 21.7142L136.683 21.7403L137.181 21.79ZM136.961 30.0176L136.461 30.0361L136.461 30.037L136.961 30.0176ZM137.303 37V37.5H137.837L137.802 36.9671L137.303 37ZM134.739 37L134.24 36.9671L134.205 37.5H134.739V37ZM135.032 30.0176L135.532 30.0315L135.532 30.0288L135.032 30.0176ZM135.032 21.1309L135.532 21.12L135.532 21.1174L135.032 21.1309ZM134.739 13.7822V13.2822H134.208L134.24 13.8123L134.739 13.7822ZM137.303 13.7822L137.802 13.8144L137.836 13.2822H137.303V13.7822ZM137.566 18.5471C139.277 15.5573 141.14 13.9525 143.118 13.5392L142.913 12.5604C140.529 13.0586 138.47 14.9531 136.698 18.0505L137.566 18.5471ZM142.544 13.2164L143.545 16.0485L144.488 15.7152L143.487 12.8832L142.544 13.2164ZM144 15.3821C141.936 15.4521 140.132 16.3057 138.602 17.9043L139.324 18.5957C140.691 17.167 142.256 16.4418 144.034 16.3815L144 15.3821ZM138.589 17.9178C137.62 19.0082 136.986 20.2676 136.691 21.6885L137.67 21.8915C137.929 20.6432 138.483 19.5426 139.337 18.5822L138.589 17.9178ZM136.683 21.7403C136.502 23.5485 136.412 25.4369 136.412 27.4053H137.412C137.412 25.4674 137.501 23.6123 137.678 21.8398L136.683 21.7403ZM136.412 27.4053C136.412 28.2742 136.429 29.1511 136.461 30.0361L137.461 29.9991C137.428 29.1262 137.412 28.2616 137.412 27.4053H136.412ZM136.461 30.037C136.575 32.9686 136.689 35.3012 136.804 37.0329L137.802 36.9671C137.688 35.2483 137.574 32.926 137.461 29.9981L136.461 30.037ZM137.303 36.5H134.739V37.5H137.303V36.5ZM135.238 37.0329C135.353 35.2985 135.451 32.9638 135.532 30.0315L134.532 30.0037C134.451 32.9307 134.354 35.251 134.24 36.9671L135.238 37.0329ZM135.532 30.0288C135.565 28.5764 135.581 27.1078 135.581 25.623H134.581C134.581 27.1005 134.565 28.5616 134.532 30.0063L135.532 30.0288ZM135.581 25.623C135.581 24.122 135.565 22.621 135.532 21.12L134.532 21.1417C134.565 22.6355 134.581 24.1293 134.581 25.623H135.581ZM135.532 21.1174C135.451 18.1036 135.353 15.6479 135.238 13.7521L134.24 13.8123C134.354 15.6926 134.451 18.136 134.532 21.1444L135.532 21.1174ZM134.739 14.2822H137.303V13.2822H134.739V14.2822ZM136.804 13.75C136.738 14.7695 136.681 16.2831 136.632 18.2866L137.632 18.311C137.68 16.3106 137.737 14.8132 137.802 13.8144L136.804 13.75ZM153.343 34.1191L153.809 34.2995L153.882 34.1122L153.804 33.9268L153.343 34.1191ZM144.041 13.7822V13.2822H143.229L143.594 14.0072L144.041 13.7822ZM147.19 13.7822L147.655 13.5965L147.529 13.2822H147.19V13.7822ZM154.271 31.2139L153.808 31.4049L154.28 32.5458L154.735 31.3982L154.271 31.2139ZM160.691 13.7822V13.2822H160.329L160.216 13.6271L160.691 13.7822ZM163.841 13.7822L164.298 13.9837L164.607 13.2822H163.841V13.7822ZM156.785 30.7256L157.25 30.9109L157.25 30.9105L156.785 30.7256ZM149.974 48.3037L149.806 48.7748L150.27 48.9397L150.442 48.4788L149.974 48.3037ZM147.435 47.4004L147.015 47.1279L146.67 47.6591L147.267 47.8715L147.435 47.4004ZM153.804 33.9268C150.789 26.6903 147.684 19.9004 144.488 13.5572L143.594 14.0072C146.779 20.3268 149.874 27.0948 152.881 34.3114L153.804 33.9268ZM144.041 14.2822H147.19V13.2822H144.041V14.2822ZM146.726 13.9679C149.233 20.2357 151.594 26.048 153.808 31.4049L154.733 31.0229C152.52 25.6701 150.161 19.8613 147.655 13.5965L146.726 13.9679ZM154.735 31.3982C157.488 24.4594 159.632 18.6383 161.167 13.9374L160.216 13.6271C158.691 18.3011 156.554 24.1012 153.806 31.0295L154.735 31.3982ZM160.691 14.2822H163.841V13.2822H160.691V14.2822ZM163.383 13.5807C161.216 18.5028 158.861 24.1564 156.321 30.5407L157.25 30.9105C159.787 24.5344 162.137 18.8923 164.298 13.9837L163.383 13.5807ZM156.321 30.5403C153.781 36.907 151.509 42.7698 149.505 48.1286L150.442 48.4788C152.442 43.128 154.712 37.2721 157.25 30.9109L156.321 30.5403ZM150.141 47.8326L147.602 46.9293L147.267 47.8715L149.806 48.7748L150.141 47.8326ZM147.854 47.6729C149.157 45.6683 151.144 41.1902 153.809 34.2995L152.876 33.9388C150.203 40.8502 148.251 45.2263 147.015 47.1279L147.854 47.6729Z" fill="black"/>
</g>
<defs>
<filter id="filter0_d_292_38" x="0.685547" y="0.478516" width="167.155" height="53.8252" filterUnits="userSpaceOnUse" color-interpolation-filters="sRGB">
<feFlood flood-opacity="0" result="BackgroundImageFix"/>
<feColorMatrix in="SourceAlpha" type="matrix" values="0 0 0 0 0 0 0 0 0 0 0 0 0 0 0 0 0 0 127 0" result="hardAlpha"/>
<feOffset dy="2"/>
<feGaussianBlur stdDeviation="2"/>
<feComposite in2="hardAlpha" operator="out"/>
<feColorMatrix type="matrix" values="0 0 0 0 0.282353 0 0 0 0 0.745098 0 0 0 0 0.933333 0 0 0 1 0"/>
<feBlend mode="normal" in2="BackgroundImageFix" result="effect1_dropShadow_292_38"/>
<feBlend mode="normal" in="SourceGraphic" in2="effect1_dropShadow_292_38" result="shape"/>
</filter>
</defs>
</svg>
