<svg width="96" height="96" viewBox="0 0 96 96" fill="none" xmlns="http://www.w3.org/2000/svg">
<path d="M95.5435 41.103C95.1045 40.3599 94.3876 39.822 93.5521 39.6071C90.7329 38.883 87.8639 38.2211 84.9911 37.6289V31.2206C84.9911 29.4234 83.5343 27.967 81.7371 27.967H70.5486C68.7515 27.967 67.2947 29.4238 67.2947 31.2206V34.8776C61.9643 34.3132 56.6117 33.9819 51.2554 33.8869V28.5113C57.6583 27.0325 62.4443 21.2852 62.4443 14.4412C62.444 6.47846 55.9652 0 48.0009 0C40.0365 0 33.5577 6.47846 33.5577 14.4412C33.5577 16.2383 35.0145 17.6951 36.8117 17.6951C38.6088 17.6951 40.0656 16.238 40.0656 14.4412C40.0656 10.0673 43.6253 6.50852 48.0005 6.50852C52.3758 6.50852 55.9355 10.0673 55.9355 14.4412C55.9355 18.8148 52.3758 22.3732 48.0005 22.3732C46.2034 22.3732 44.7466 23.83 44.7466 25.6271V33.8869C39.3901 33.9819 34.0374 34.3132 28.7067 34.8776V31.2206C28.7067 29.4234 27.2496 27.967 25.4528 27.967H14.2649C12.4678 27.967 11.011 29.4238 11.011 31.2206V37.6289C8.1378 38.2211 5.26883 38.883 2.44996 39.6071C1.61442 39.822 0.897497 40.3599 0.45823 41.103C0.0196101 41.8461 -0.107095 42.733 0.108175 43.5692L2.89084 54.4022C3.26805 55.8709 4.59038 56.8477 6.04005 56.8471C6.30769 56.8471 6.58017 56.8141 6.85168 56.7443C8.21635 56.3942 9.60655 56.0581 11.011 55.7374V92.7461C11.011 94.5429 12.4678 96 14.2649 96H81.7368C83.534 96 84.9907 94.5429 84.9907 92.7461V55.7371C86.3952 56.0577 87.7854 56.3939 89.1494 56.744C89.4212 56.8138 89.6934 56.8467 89.9613 56.8467C91.411 56.8467 92.7334 55.8709 93.1106 54.4019L95.8935 43.5689C96.1091 42.733 95.9824 41.8461 95.5435 41.103ZM65.9756 41.2846C64.5013 43.5689 61.9355 45.0855 59.0197 45.0855H36.9807C34.0649 45.0855 31.4994 43.5692 30.0249 41.2846C41.9723 40.0628 54.0294 40.0628 65.9756 41.2846ZM8.39283 49.6627L7.22889 45.1307C8.48463 44.833 9.74619 44.5486 11.011 44.278V49.066C10.1331 49.2593 9.26005 49.4581 8.39283 49.6627ZM78.4829 89.4918H17.5188V34.4745H22.1989V36.8134C22.1989 44.9633 28.8302 51.5933 36.9811 51.5933H59.02C67.1712 51.5933 73.8022 44.9633 73.8022 36.8134V34.4745H78.4826V89.4918H78.4829ZM87.6086 49.6627C86.7417 49.4578 85.8686 49.2593 84.9907 49.0663V44.278C86.2555 44.5486 87.5171 44.833 88.7728 45.1307L87.6086 49.6627Z" fill="black"/>
</svg>
