<svg width="44" height="30" viewBox="0 0 44 30" fill="none" xmlns="http://www.w3.org/2000/svg">
<path d="M43.0638 0H0.936122C0.929747 0 0.923461 0.000628177 0.917175 0.000717973L0.917265 0.000987898C0.40911 0.0111348 0 0.425093 0 0.936212V29.0213C0 29.5387 0.419257 29.9575 0.936122 29.9575H43.0638C43.5808 29.9575 44 29.5387 44 29.0213V0.936212C44 0.418718 43.5808 0 43.0638 0ZM40.8039 1.87242L28.3599 14.3163C28.3597 14.3165 28.3595 14.3166 28.3593 14.3168L22 20.6762L15.6407 14.3168C15.6403 14.3164 15.6399 14.3162 15.6395 14.3157L3.1962 1.87242H40.8039ZM1.87233 3.19611L13.6549 14.9787L1.87233 26.7613V3.19611ZM3.1962 28.0851L14.9788 16.3024L21.3382 22.6619C21.6641 22.9878 22.1736 23.1503 22.6621 22.6619L29.0214 16.3025L40.804 28.0851H3.1962ZM42.1277 26.7612L30.3452 14.9787L42.1277 3.1962V26.7612Z" fill="black"/>
</svg>
