<svg width="212" height="202" viewBox="0 0 212 202" fill="none" xmlns="http://www.w3.org/2000/svg">
<path d="M131.525 12.2915C131.525 12.2915 155.136 17.2397 164.581 23.1709C174.026 29.1017 211.213 175.119 211.213 175.119L183.47 184.609L158.088 123.402L131.525 12.2915Z" fill="#BA7D6A" stroke="black" stroke-width="1.0125"/>
<path d="M80.6877 12.2915C80.6877 12.2915 57.0769 17.2397 47.6322 23.1709C38.1875 29.1017 1 175.119 1 175.119L28.743 184.609L54.1252 123.402L80.6877 12.2915Z" fill="#BA7D6A" stroke="black" stroke-width="1.0125"/>
<path d="M52.9732 20.2596L51.2014 192.136C55.7769 193.802 98.4347 202.643 103.444 199.349C103.829 199.096 108.001 199.242 108.141 199.211C110.079 198.789 106.228 75.0424 106.076 29.8422C105.992 29.9417 102.097 22.9515 102.097 22.9515L95.7165 19.55L85.3077 9.19385L52.9732 20.2596Z" fill="#48BEEE" stroke="black" stroke-width="0.943377"/>
<path d="M159.24 20.2599L161.012 192.137C160.459 192.979 105.074 203.009 103.126 200.638C101.864 199.101 103.76 79.9755 103.912 34.7836C104.599 32.3755 109.644 24.5752 110.448 23.0655C114.052 22.0334 116.497 19.5528 116.497 19.5528L126.906 9.19678L159.24 20.2599Z" fill="#48BEEE" stroke="black" stroke-width="0.943377"/>
<path d="M124.096 3.14941L88.4095 3.56879L86.74 25.1666L101.47 22.8357L106.046 30.3378L110.493 22.9977L126.601 17.1985L124.096 3.14941Z" fill="#48BEEE" stroke="black" stroke-width="1.0125"/>
<path d="M125.348 12.7949C125.348 12.7949 112.401 11.0114 105.957 11.0157C99.5125 11.0241 86.844 12.7949 86.844 12.7949L88.2005 3.04446C88.2005 3.04446 100.336 0.996064 106.409 1.00001C112.481 1.00001 124.408 3.04446 124.408 3.04446L125.973 7.6576L125.243 12.2707L125.348 12.7949Z" fill="#BA7D6A" stroke="black" stroke-width="1.0125"/>
<path d="M124.347 3.82007C124.347 3.82007 126.434 4.65882 128.312 15.1432C130.19 25.6276 125.599 35.2732 125.599 35.2732L110.781 22.9017C110.781 22.9017 123.303 16.611 124.138 11.3688C124.973 6.12663 124.347 3.82007 124.347 3.82007Z" fill="#BA7D6A" stroke="black" stroke-width="1.0125"/>
<path d="M88.2842 3.82007C88.2842 3.82007 86.1973 4.65882 84.319 15.1432C82.4408 25.6276 87.032 35.2732 87.032 35.2732L101.849 22.9017C101.849 22.9017 89.3277 16.611 88.4929 11.3688C87.6581 6.12663 88.2842 3.82007 88.2842 3.82007Z" fill="#BA7D6A" stroke="black" stroke-width="1.0125"/>
<path d="M121.675 58.6747L147.979 58.5269L148.07 88.3846L121.675 88.3109V58.6747Z" fill="#BA7D6A" stroke="black" stroke-width="1.12469"/>
</svg>
