<svg width="96" height="96" viewBox="0 0 96 96" fill="none" xmlns="http://www.w3.org/2000/svg">
<path d="M96 2.74706C96 2.72734 96 2.70762 96 2.66818C96 2.60902 95.9803 2.56958 95.9803 2.51043C95.9803 2.47099 95.9803 2.43155 95.9606 2.39211C95.9606 2.35267 95.9409 2.31323 95.9409 2.29351C95.9212 2.25407 95.9212 2.19492 95.9015 2.15548C95.9015 2.13576 95.8817 2.11604 95.8817 2.0766C95.862 2.01744 95.8423 1.95828 95.8226 1.89913C95.8226 1.87941 95.8029 1.87941 95.8029 1.85969C95.7832 1.80053 95.7438 1.72165 95.7044 1.66249C95.7044 1.64277 95.6847 1.62305 95.6847 1.62305C95.6452 1.5639 95.6255 1.50474 95.5861 1.44558C95.4482 1.24839 95.2905 1.07091 95.1131 0.913157C94.3839 0.084943 93.1817 -0.250286 92.0977 0.203259L1.65551 37.5912C1.6358 37.6109 1.59639 37.6109 1.57668 37.6306C1.51755 37.6504 1.47814 37.6701 1.41901 37.7095C1.37959 37.7292 1.34018 37.749 1.30076 37.7687C1.26134 37.7884 1.22193 37.8081 1.18251 37.8476C1.14309 37.8673 1.10367 37.9067 1.06426 37.9264C1.02484 37.9461 1.00513 37.9659 0.965715 38.0053C0.926299 38.025 0.90659 38.0645 0.867173 38.1039C0.827756 38.1236 0.808048 38.1631 0.768631 38.1828C0.729214 38.2222 0.709505 38.2419 0.670088 38.2814C0.65038 38.3208 0.610963 38.3405 0.591254 38.38C0.571546 38.4194 0.532129 38.4589 0.51242 38.4786C0.492712 38.518 0.453295 38.5377 0.433587 38.5772C0.413878 38.6166 0.374461 38.656 0.354753 38.6955C0.335044 38.7349 0.315336 38.7546 0.295627 38.7941C0.25621 38.8532 0.236502 38.9124 0.216793 38.9716C0.216793 38.9913 0.197085 39.011 0.177376 39.0307C0.137959 39.1096 0.118251 39.1885 0.0985424 39.2673C0.0985424 39.2673 0.0985424 39.2673 0.0985424 39.2871C0.0788339 39.3659 0.0591254 39.4448 0.039417 39.5434C0.039417 39.5829 0.0197085 39.6223 0.0197085 39.6617C0.0197085 39.7012 0 39.7603 0 39.7998C0 39.8392 0 39.8786 0 39.9181C0 39.9575 0 40.0167 0 40.0561C0 40.0956 0 40.135 0 40.1744C0 40.2139 0 40.273 0 40.3125C0 40.3519 0.0197085 40.3914 0.0197085 40.4111C0.0197085 40.4702 0.039417 40.5097 0.039417 40.5688C0.0591254 40.628 0.0591254 40.6871 0.0788339 40.7463C0.0985424 40.7857 0.0985424 40.8252 0.118251 40.8646C0.137959 40.9238 0.157668 41.0027 0.197085 41.0618C0.216793 41.1407 0.25621 41.1998 0.295627 41.259C0.295627 41.2787 0.315336 41.2984 0.315336 41.2984C0.335044 41.3576 0.374461 41.397 0.413878 41.4562C0.433587 41.4759 0.433587 41.4956 0.453295 41.5154C0.492712 41.5745 0.51242 41.614 0.551837 41.6534C0.571546 41.6731 0.571546 41.6928 0.591254 41.6928C0.65038 41.752 0.689797 41.8111 0.748922 41.8703C0.808048 41.9295 0.867173 41.9689 0.926298 42.0281C0.946007 42.0478 0.965715 42.0675 0.985424 42.0675C1.02484 42.1069 1.08397 42.1464 1.12338 42.1661C1.14309 42.1858 1.1628 42.1858 1.18251 42.2055C1.24163 42.245 1.32047 42.2844 1.37959 42.3239C1.3993 42.3239 1.3993 42.3436 1.41901 42.3436C1.47814 42.383 1.53726 42.4027 1.6161 42.4422C1.6358 42.4422 1.6358 42.4619 1.65551 42.4619L38.1162 57.9219L53.5676 94.4027C53.5874 94.4816 53.6268 94.5408 53.6662 94.5999C53.6662 94.6196 53.6859 94.6394 53.6859 94.6394C53.7253 94.6985 53.745 94.738 53.7844 94.7971C53.8041 94.8168 53.8041 94.8366 53.8239 94.8563C53.8633 94.9154 53.9027 94.9549 53.9224 94.9943C53.9421 95.014 53.9421 95.0338 53.9618 95.0338C54.0209 95.0929 54.0604 95.1521 54.1195 95.2112L54.1392 95.2309C54.1983 95.2704 54.2377 95.3295 54.2969 95.369C54.3166 95.3887 54.3363 95.4084 54.356 95.4084C54.3954 95.4479 54.4545 95.4873 54.4939 95.507C54.5137 95.5267 54.5334 95.5267 54.5531 95.5465C54.6122 95.5859 54.691 95.6253 54.7502 95.6648C54.7699 95.6648 54.7896 95.6845 54.7896 95.6845C54.8487 95.7239 54.9078 95.7437 54.9669 95.7634C54.9867 95.7634 54.9867 95.7831 55.0064 95.7831C55.0064 95.7831 55.0261 95.7831 55.0261 95.8028C55.0852 95.8225 55.164 95.862 55.2232 95.8817H55.2429C55.3217 95.9014 55.3808 95.9211 55.4597 95.9408C55.4794 95.9408 55.5188 95.9408 55.5385 95.9606C55.5976 95.9606 55.637 95.9803 55.6962 95.9803C55.7159 95.9803 55.7553 95.9803 55.775 95.9803C55.8538 95.9803 55.913 96 55.9918 96C56.0706 96 56.1495 96 56.2086 95.9803C56.2283 95.9803 56.2677 95.9803 56.2874 95.9803C56.3465 95.9803 56.4057 95.9606 56.4451 95.9606C56.4648 95.9606 56.5042 95.9606 56.5239 95.9408C56.6027 95.9211 56.6816 95.9014 56.7407 95.8817C56.7604 95.8817 56.7604 95.8817 56.7801 95.862C56.8393 95.8422 56.9181 95.8225 56.9772 95.7831C56.9969 95.7831 56.9969 95.7831 57.0166 95.7634C57.0363 95.7634 57.0363 95.7436 57.056 95.7436C57.1152 95.7239 57.1743 95.6845 57.2334 95.6451C57.2531 95.6451 57.2531 95.6253 57.2728 95.6253C57.332 95.5859 57.4108 95.5465 57.4699 95.507C57.4896 95.4873 57.5093 95.4873 57.529 95.4676C57.5685 95.4281 57.6276 95.4084 57.667 95.369C57.6867 95.3493 57.7064 95.3295 57.7261 95.3295C57.7853 95.2704 57.8444 95.2309 57.8838 95.1718C57.9429 95.1126 57.9823 95.0535 58.0415 94.9943C58.0612 94.9746 58.0612 94.9549 58.0809 94.9352C58.1203 94.8957 58.1597 94.8366 58.1794 94.7971C58.1991 94.7774 58.1991 94.7577 58.2188 94.738C58.2583 94.6788 58.278 94.6394 58.3174 94.5802C58.3174 94.5605 58.3371 94.5408 58.3371 94.5408C58.3765 94.4816 58.3962 94.4027 58.4356 94.3436L95.8029 3.94994C95.862 3.79219 95.9212 3.61471 95.9606 3.43724C95.9803 3.37808 95.9803 3.2992 95.9803 3.24004C95.9803 3.22032 95.9803 3.2006 95.9803 3.18089C95.9803 3.10201 95.9803 3.04285 96 2.96397C96 2.94425 96 2.92453 96 2.92453C96 2.86538 96 2.80622 96 2.74706ZM9.57832 40.0758L82.6179 9.90519L39.6929 52.8343L9.57832 40.0758ZM55.9721 86.4953L43.3587 56.6993L85.791 14.2632L55.9721 86.4953Z" fill="black"/>
</svg>
