<?xml version="1.0" encoding="UTF-8" ?>
<!DOCTYPE svg PUBLIC "-//W3C//DTD SVG 1.1//EN" "http://www.w3.org/Graphics/SVG/1.1/DTD/svg11.dtd">
<svg width="512pt" height="512pt" viewBox="0 0 512 512" version="1.1" xmlns="http://www.w3.org/2000/svg">
<g id="#34373eff">
<path fill="#34373e" opacity="1.00" d=" M 145.64 0.00 L 196.95 0.00 C 201.62 0.41 205.35 4.21 205.68 8.88 C 207.23 21.71 210.61 34.52 217.25 45.70 C 222.81 55.07 231.43 62.93 241.99 66.14 C 256.19 70.46 272.86 68.17 284.29 58.30 C 294.86 49.39 300.48 36.16 303.86 23.06 C 305.40 17.48 305.48 11.61 307.04 6.05 C 308.06 2.59 311.43 0.62 314.79 0.00 L 366.16 0.00 C 372.08 0.30 376.54 6.67 374.31 12.27 C 372.59 17.62 365.94 17.81 362.68 21.76 C 358.05 26.99 356.74 34.26 356.72 41.03 C 356.72 47.84 357.96 55.16 362.58 60.44 C 365.12 63.54 369.32 64.28 372.32 66.76 C 376.01 70.18 375.82 76.69 371.90 79.86 C 367.92 83.19 363.77 86.40 360.63 90.59 C 352.28 101.19 346.94 113.78 342.38 126.38 C 333.76 152.01 329.90 179.07 329.34 206.05 C 329.36 208.03 331.03 209.45 332.06 211.00 C 359.05 244.76 380.31 282.80 397.47 322.39 C 418.34 370.91 433.33 421.90 442.69 473.86 C 443.21 477.55 444.32 481.73 442.11 485.10 C 431.44 500.19 414.29 511.45 395.45 512.00 L 391.74 512.00 C 374.26 511.15 358.17 502.96 344.20 492.92 C 333.17 504.07 318.13 511.22 302.40 512.00 L 298.44 512.00 C 282.61 511.77 267.43 504.76 256.00 493.99 C 244.57 504.72 229.41 511.66 213.63 512.00 L 209.75 512.00 C 193.96 511.27 178.87 504.10 167.81 492.92 C 153.46 502.76 137.34 511.51 119.53 512.00 L 116.70 512.00 C 98.04 511.52 81.08 500.48 70.29 485.71 C 67.64 482.26 68.70 477.72 69.32 473.79 C 78.64 422.11 93.51 371.38 114.23 323.11 C 127.64 292.00 143.59 261.90 162.85 234.00 C 168.80 224.57 176.50 216.33 182.57 207.02 C 182.36 179.97 178.33 152.83 169.88 127.09 C 164.51 112.34 158.29 97.24 147.12 85.86 C 143.87 82.29 138.45 80.21 137.30 75.12 C 136.18 70.51 139.23 65.94 143.58 64.47 C 150.64 61.78 154.11 54.17 154.90 47.09 C 155.83 38.65 155.30 29.19 149.77 22.29 C 147.35 19.08 143.25 18.14 140.10 15.89 C 136.35 12.91 136.03 6.77 139.22 3.27 C 140.79 1.30 143.27 0.51 145.64 0.00 M 168.97 18.31 C 173.11 27.57 174.31 37.91 173.27 47.95 C 172.46 57.75 168.36 67.26 161.45 74.30 C 174.64 89.02 182.84 107.46 188.82 126.12 C 197.51 153.68 200.82 182.66 201.13 211.49 C 237.52 216.10 274.49 216.12 310.88 211.48 C 311.33 173.30 316.87 134.34 333.63 99.66 C 338.37 90.66 343.58 81.80 350.52 74.29 C 345.20 68.72 341.30 61.74 339.74 54.18 C 337.25 42.26 338.06 29.50 343.03 18.31 C 336.55 18.33 330.07 18.27 323.59 18.35 C 321.80 28.13 319.10 37.80 314.68 46.73 C 308.94 59.62 299.64 71.19 287.40 78.41 C 272.63 87.08 254.27 88.60 237.91 84.10 C 223.50 80.12 211.32 70.09 203.27 57.66 C 195.60 45.80 190.85 32.22 188.41 18.35 C 181.93 18.28 175.45 18.33 168.97 18.31 M 196.14 219.98 C 163.53 260.23 139.68 306.87 121.24 355.10 C 106.30 394.89 94.80 436.02 87.29 477.86 C 95.53 487.08 107.15 494.36 119.95 493.59 C 137.24 492.66 151.79 482.15 165.15 472.12 C 169.06 421.68 176.66 371.37 190.51 322.65 C 196.65 300.23 204.21 278.14 213.89 256.98 C 214.99 254.79 216.14 251.92 218.98 251.68 C 222.25 251.29 225.07 254.99 223.51 257.99 C 221.09 264.29 217.85 270.24 215.54 276.59 C 191.53 339.31 179.37 406.07 174.35 472.88 C 178.25 476.91 181.64 481.50 186.25 484.80 C 195.13 491.64 206.77 494.87 217.89 493.21 C 228.25 491.83 237.85 486.47 245.04 478.98 C 247.15 476.69 249.22 474.35 251.43 472.15 C 251.42 400.75 251.45 329.36 251.42 257.97 C 251.35 255.80 251.72 253.13 253.98 252.17 C 257.16 250.38 261.02 253.46 260.54 256.91 C 260.60 328.63 260.57 400.37 260.55 472.10 C 264.41 475.99 267.79 480.40 272.20 483.72 C 281.05 490.78 292.60 494.57 303.92 493.44 C 312.32 492.67 320.37 489.22 326.89 483.90 C 330.98 480.71 334.10 476.53 337.68 472.83 C 336.16 450.46 333.40 428.19 330.06 406.02 C 326.12 381.81 321.51 357.66 314.91 334.02 C 308.22 308.24 299.86 282.81 288.71 258.60 C 286.83 255.53 289.38 251.26 293.01 251.67 C 296.09 251.97 297.18 255.21 298.39 257.57 C 308.34 279.53 316.12 302.44 322.32 325.73 C 335.70 373.46 343.00 422.73 346.85 472.10 C 352.56 476.11 357.94 480.61 364.03 484.08 C 374.77 490.43 387.44 495.37 400.09 492.99 C 409.89 491.26 418.11 484.99 424.72 477.84 C 420.61 453.91 414.60 430.36 408.06 406.99 C 397.20 369.87 383.46 333.53 366.13 298.94 C 352.06 271.04 335.59 244.26 315.87 219.98 C 276.22 225.50 235.79 225.52 196.14 219.98 Z" />
</g>
<g id="#4ec67cff">
<path fill="#4ec67c" opacity="1.00" d=" M 168.97 18.31 C 175.45 18.33 181.93 18.28 188.41 18.35 C 190.85 32.22 195.60 45.80 203.27 57.66 C 211.32 70.09 223.50 80.12 237.91 84.10 C 254.27 88.60 272.63 87.08 287.40 78.41 C 299.64 71.19 308.94 59.62 314.68 46.73 C 319.10 37.80 321.80 28.13 323.59 18.35 C 330.07 18.27 336.55 18.33 343.03 18.31 C 338.06 29.50 337.25 42.26 339.74 54.18 C 341.30 61.74 345.20 68.72 350.52 74.29 C 343.58 81.80 338.37 90.66 333.63 99.66 C 316.87 134.34 311.33 173.30 310.88 211.48 C 274.49 216.12 237.52 216.10 201.13 211.49 C 200.82 182.66 197.51 153.68 188.82 126.12 C 182.84 107.46 174.64 89.02 161.45 74.30 C 168.36 67.26 172.46 57.75 173.27 47.95 C 174.31 37.91 173.11 27.57 168.97 18.31 Z" />
</g>
<g id="#4aa483ff">
<path fill="#4aa483" opacity="1.00" d=" M 196.14 219.98 C 235.79 225.52 276.22 225.50 315.87 219.98 C 335.59 244.26 352.06 271.04 366.13 298.94 C 383.46 333.53 397.20 369.87 408.06 406.99 C 414.60 430.36 420.61 453.91 424.72 477.84 C 418.11 484.99 409.89 491.26 400.09 492.99 C 387.44 495.37 374.77 490.43 364.03 484.08 C 357.94 480.61 352.56 476.11 346.85 472.10 C 343.00 422.73 335.70 373.46 322.32 325.73 C 316.12 302.44 308.34 279.53 298.39 257.57 C 297.18 255.21 296.09 251.97 293.01 251.67 C 289.38 251.26 286.83 255.53 288.71 258.60 C 299.86 282.81 308.22 308.24 314.91 334.02 C 321.51 357.66 326.12 381.81 330.06 406.02 C 333.40 428.19 336.16 450.46 337.68 472.83 C 334.10 476.53 330.98 480.71 326.89 483.90 C 320.37 489.22 312.32 492.67 303.92 493.44 C 292.60 494.57 281.05 490.78 272.20 483.72 C 267.79 480.40 264.41 475.99 260.55 472.10 C 260.57 400.37 260.60 328.63 260.54 256.91 C 261.02 253.46 257.16 250.38 253.98 252.17 C 251.72 253.13 251.35 255.80 251.42 257.97 C 251.45 329.36 251.42 400.75 251.43 472.15 C 249.22 474.35 247.15 476.69 245.04 478.98 C 237.85 486.47 228.25 491.83 217.89 493.21 C 206.77 494.87 195.13 491.64 186.25 484.80 C 181.64 481.50 178.25 476.91 174.35 472.88 C 179.37 406.07 191.53 339.31 215.54 276.59 C 217.85 270.24 221.09 264.29 223.51 257.99 C 225.07 254.99 222.25 251.29 218.98 251.68 C 216.14 251.92 214.99 254.79 213.89 256.98 C 204.21 278.14 196.65 300.23 190.51 322.65 C 176.66 371.37 169.06 421.68 165.15 472.12 C 151.79 482.15 137.24 492.66 119.95 493.59 C 107.15 494.36 95.53 487.08 87.29 477.86 C 94.80 436.02 106.30 394.89 121.24 355.10 C 139.68 306.87 163.53 260.23 196.14 219.98 Z" />
</g>
</svg>
